<svg width="288" height="37" viewBox="0 0 288 37" fill="none" xmlns="http://www.w3.org/2000/svg">
<g filter="url(#filter0_i_108_620)">
<rect width="129" height="37" rx="15.0106" fill="#23344C"/>
<path d="M14.4313 25L19.619 12.3911H21.06L26.2116 25H23.9781L19.9432 14.7868H20.6997L16.6289 25H14.4313ZM16.9891 22.5683V20.767H23.6718V22.5683H16.9891ZM30.8558 25.1801C30.0753 25.1801 29.3668 24.982 28.7303 24.5857C28.1059 24.1894 27.6075 23.6551 27.2353 22.9826C26.875 22.2981 26.6949 21.5356 26.6949 20.695C26.6949 19.8424 26.875 19.0798 27.2353 18.4074C27.6075 17.7229 28.1059 17.1825 28.7303 16.7862C29.3668 16.3779 30.0753 16.1738 30.8558 16.1738C31.5163 16.1738 32.0987 16.3179 32.603 16.6061C33.1194 16.8823 33.5277 17.2666 33.8279 17.7589C34.1281 18.2512 34.2782 18.8096 34.2782 19.4341V21.9198C34.2782 22.5443 34.1281 23.1027 33.8279 23.595C33.5397 24.0874 33.1374 24.4776 32.621 24.7658C32.1047 25.042 31.5163 25.1801 30.8558 25.1801ZM31.18 23.3068C31.6724 23.3068 32.0987 23.1987 32.4589 22.9826C32.8312 22.7544 33.1194 22.4422 33.3235 22.0459C33.5277 21.6496 33.6298 21.1933 33.6298 20.677C33.6298 20.1606 33.5277 19.7043 33.3235 19.308C33.1194 18.9117 32.8312 18.6055 32.4589 18.3893C32.0987 18.1612 31.6724 18.0471 31.18 18.0471C30.6997 18.0471 30.2734 18.1612 29.9011 18.3893C29.5409 18.6055 29.2527 18.9117 29.0365 19.308C28.8324 19.7043 28.7303 20.1606 28.7303 20.677C28.7303 21.1933 28.8324 21.6496 29.0365 22.0459C29.2527 22.4422 29.5409 22.7544 29.9011 22.9826C30.2734 23.1987 30.6997 23.3068 31.18 23.3068ZM35.4851 25H33.5037V22.6764L33.8459 20.5689L33.5037 18.4794V12.0309H35.4851V25ZM41.3046 25.1801C40.524 25.1801 39.8155 24.982 39.1791 24.5857C38.5546 24.1894 38.0563 23.6551 37.684 22.9826C37.3238 22.2981 37.1436 21.5356 37.1436 20.695C37.1436 19.8424 37.3238 19.0798 37.684 18.4074C38.0563 17.7229 38.5546 17.1825 39.1791 16.7862C39.8155 16.3779 40.524 16.1738 41.3046 16.1738C41.965 16.1738 42.5474 16.3179 43.0518 16.6061C43.5682 16.8823 43.9765 17.2666 44.2767 17.7589C44.5769 18.2512 44.727 18.8096 44.727 19.4341V21.9198C44.727 22.5443 44.5769 23.1027 44.2767 23.595C43.9885 24.0874 43.5862 24.4776 43.0698 24.7658C42.5535 25.042 41.965 25.1801 41.3046 25.1801ZM41.6288 23.3068C42.1211 23.3068 42.5474 23.1987 42.9077 22.9826C43.28 22.7544 43.5682 22.4422 43.7723 22.0459C43.9765 21.6496 44.0785 21.1933 44.0785 20.677C44.0785 20.1606 43.9765 19.7043 43.7723 19.308C43.5682 18.9117 43.28 18.6055 42.9077 18.3893C42.5474 18.1612 42.1211 18.0471 41.6288 18.0471C41.1485 18.0471 40.7222 18.1612 40.3499 18.3893C39.9896 18.6055 39.7014 18.9117 39.4853 19.308C39.2811 19.7043 39.1791 20.1606 39.1791 20.677C39.1791 21.1933 39.2811 21.6496 39.4853 22.0459C39.7014 22.4422 39.9896 22.7544 40.3499 22.9826C40.7222 23.1987 41.1485 23.3068 41.6288 23.3068ZM45.9338 25H43.9524V22.6764L44.2947 20.5689L43.9524 18.4794V12.0309H45.9338V25ZM52.009 25V12.3911H54.0805V25H52.009ZM57.856 25V12.7514H59.8374V25H57.856ZM55.7845 18.1552V16.3539H61.9088V18.1552H55.7845ZM67.1192 25.1801C66.2545 25.1801 65.474 24.988 64.7775 24.6037C64.093 24.2074 63.5466 23.6671 63.1383 22.9826C62.7421 22.2981 62.5439 21.5296 62.5439 20.677C62.5439 19.8244 62.7421 19.0618 63.1383 18.3893C63.5346 17.7049 64.069 17.1645 64.7415 16.7682C65.426 16.3719 66.1825 16.1738 67.0111 16.1738C67.8156 16.1738 68.5241 16.3599 69.1366 16.7322C69.761 17.1044 70.2474 17.6148 70.5956 18.2633C70.9559 18.9117 71.136 19.6502 71.136 20.4788C71.136 20.6229 71.124 20.773 71.1 20.9291C71.0879 21.0732 71.0639 21.2353 71.0279 21.4155H63.9309V19.7943H70.0012L69.2627 20.4428C69.2386 19.9144 69.1366 19.4701 68.9564 19.1099C68.7763 18.7496 68.5181 18.4734 68.1819 18.2813C67.8577 18.0891 67.4554 17.9931 66.9751 17.9931C66.4707 17.9931 66.0324 18.1011 65.6601 18.3173C65.2879 18.5334 64.9997 18.8397 64.7955 19.2359C64.5914 19.6202 64.4893 20.0825 64.4893 20.6229C64.4893 21.1633 64.5974 21.6376 64.8135 22.0459C65.0297 22.4542 65.3359 22.7724 65.7322 23.0006C66.1285 23.2167 66.5848 23.3248 67.1011 23.3248C67.5455 23.3248 67.9537 23.2468 68.326 23.0907C68.7103 22.9345 69.0345 22.7064 69.2987 22.4062L70.5596 23.6851C70.1393 24.1774 69.6289 24.5497 69.0285 24.8019C68.4281 25.054 67.7916 25.1801 67.1192 25.1801ZM72.7243 25V16.3539H74.7057V25H72.7243ZM78.4704 25V19.8484C78.4704 19.272 78.2903 18.8277 77.93 18.5154C77.5697 18.1912 77.1254 18.0291 76.5971 18.0291C76.2368 18.0291 75.9126 18.1011 75.6244 18.2452C75.3482 18.3893 75.126 18.5995 74.9579 18.8757C74.7898 19.1399 74.7057 19.4641 74.7057 19.8484L73.9312 19.4161C73.9312 18.7556 74.0753 18.1852 74.3635 17.7049C74.6517 17.2245 75.042 16.8523 75.5343 16.5881C76.0267 16.3119 76.5791 16.1738 77.1915 16.1738C77.8039 16.1738 78.3563 16.3059 78.8486 16.5701C79.341 16.8342 79.7313 17.2065 80.0195 17.6868C80.3077 18.1672 80.4518 18.7436 80.4518 19.4161V25H78.4704ZM84.2164 25V19.8484C84.2164 19.272 84.0363 18.8277 83.6761 18.5154C83.3158 18.1912 82.8715 18.0291 82.3431 18.0291C81.9949 18.0291 81.6766 18.1011 81.3884 18.2452C81.1002 18.3893 80.8721 18.5995 80.704 18.8757C80.5358 19.1399 80.4518 19.4641 80.4518 19.8484L79.335 19.4161C79.395 18.7556 79.5872 18.1852 79.9114 17.7049C80.2356 17.2245 80.6499 16.8523 81.1543 16.5881C81.6706 16.3119 82.235 16.1738 82.8475 16.1738C83.4719 16.1738 84.0363 16.3059 84.5407 16.5701C85.045 16.8342 85.4473 17.2065 85.7475 17.6868C86.0477 18.1672 86.1978 18.7436 86.1978 19.4161V25H84.2164Z" fill="white"/>
<g clip-path="url(#clip0_108_620)">
<path d="M100.751 26.75C100.751 27.0467 100.663 27.3367 100.498 27.5834C100.333 27.83 100.099 28.0223 99.825 28.1358C99.5509 28.2494 99.2493 28.2791 98.9583 28.2212C98.6674 28.1633 98.4001 28.0204 98.1903 27.8107C97.9805 27.6009 97.8377 27.3336 97.7798 27.0426C97.7219 26.7517 97.7516 26.4501 97.8652 26.176C97.9787 25.9019 98.1709 25.6676 98.4176 25.5028C98.6643 25.338 98.9543 25.25 99.251 25.25C99.6488 25.25 100.03 25.408 100.312 25.6893C100.593 25.9706 100.751 26.3522 100.751 26.75ZM109.001 25.25C108.704 25.25 108.414 25.338 108.168 25.5028C107.921 25.6676 107.729 25.9019 107.615 26.176C107.502 26.4501 107.472 26.7517 107.53 27.0426C107.588 27.3336 107.731 27.6009 107.94 27.8107C108.15 28.0204 108.417 28.1633 108.708 28.2212C108.999 28.2791 109.301 28.2494 109.575 28.1358C109.849 28.0223 110.083 27.83 110.248 27.5834C110.413 27.3367 110.501 27.0467 110.501 26.75C110.501 26.3522 110.343 25.9706 110.062 25.6893C109.78 25.408 109.399 25.25 109.001 25.25ZM113.474 13.4506L111.07 22.1019C110.938 22.5745 110.655 22.9911 110.265 23.2885C109.875 23.5859 109.398 23.7479 108.907 23.75H99.641C99.1488 23.7498 98.6702 23.5886 98.2782 23.291C97.8862 22.9935 97.6023 22.5758 97.4697 22.1019L94.181 10.25H92.501C92.3021 10.25 92.1113 10.171 91.9706 10.0303C91.83 9.88968 91.751 9.69891 91.751 9.5C91.751 9.30109 91.83 9.11032 91.9706 8.96967C92.1113 8.82902 92.3021 8.75 92.501 8.75H94.751C94.9149 8.74997 95.0744 8.80367 95.205 8.90289C95.3355 9.00211 95.4299 9.14138 95.4738 9.29938L96.3625 12.5H112.751C112.867 12.5 112.981 12.5267 113.084 12.578C113.188 12.6294 113.278 12.704 113.348 12.7961C113.418 12.8881 113.466 12.9951 113.488 13.1086C113.509 13.2222 113.505 13.3392 113.474 13.4506ZM111.764 14H96.7797L98.9182 21.7006C98.962 21.8586 99.0565 21.9979 99.187 22.0971C99.3175 22.1963 99.477 22.25 99.641 22.25H108.907C109.071 22.25 109.231 22.1963 109.361 22.0971C109.492 21.9979 109.586 21.8586 109.63 21.7006L111.764 14Z" fill="white"/>
</g>
</g>
<g filter="url(#filter1_i_108_620)">
<rect x="159" width="129" height="37" rx="15.0106" fill="white" fill-opacity="0.2"/>
<path d="M175.162 25.1801C174.261 25.1801 173.42 25.012 172.64 24.6758C171.859 24.3395 171.175 23.8772 170.587 23.2888C169.998 22.6884 169.536 21.9979 169.2 21.2173C168.875 20.4248 168.713 19.5782 168.713 18.6775C168.713 17.7769 168.875 16.9363 169.2 16.1558C169.536 15.3752 169.992 14.6907 170.568 14.1023C171.157 13.5019 171.835 13.0396 172.604 12.7153C173.384 12.3791 174.225 12.211 175.126 12.211C176.026 12.211 176.861 12.3791 177.629 12.7153C178.41 13.0396 179.094 13.5019 179.683 14.1023C180.271 14.6907 180.728 15.3812 181.052 16.1738C181.388 16.9543 181.556 17.7949 181.556 18.6956C181.556 19.5962 181.388 20.4428 181.052 21.2353C180.728 22.0159 180.271 22.7004 179.683 23.2888C179.107 23.8772 178.428 24.3395 177.647 24.6758C176.879 25.012 176.05 25.1801 175.162 25.1801ZM175.126 23.1987C175.978 23.1987 176.723 23.0066 177.359 22.6223C178.008 22.2381 178.512 21.7097 178.872 21.0372C179.245 20.3527 179.431 19.5662 179.431 18.6775C179.431 18.0171 179.323 17.4167 179.107 16.8763C178.902 16.3239 178.608 15.8496 178.224 15.4533C177.84 15.045 177.383 14.7328 176.855 14.5166C176.339 14.3005 175.762 14.1924 175.126 14.1924C174.285 14.1924 173.541 14.3845 172.892 14.7688C172.256 15.1411 171.751 15.6634 171.379 16.3359C171.019 17.0084 170.839 17.7889 170.839 18.6775C170.839 19.338 170.941 19.9504 171.145 20.5148C171.361 21.0672 171.655 21.5416 172.028 21.9378C172.412 22.3341 172.868 22.6463 173.396 22.8745C173.925 23.0907 174.501 23.1987 175.126 23.1987ZM183.393 25V16.3539H185.374V25H183.393ZM185.374 20.1906L184.689 19.8484C184.689 18.7556 184.93 17.873 185.41 17.2005C185.902 16.516 186.641 16.1738 187.626 16.1738C188.058 16.1738 188.448 16.2518 188.796 16.4079C189.145 16.5641 189.469 16.8162 189.769 17.1645L188.472 18.4974C188.316 18.3293 188.142 18.2092 187.95 18.1372C187.758 18.0651 187.535 18.0291 187.283 18.0291C186.731 18.0291 186.275 18.2032 185.914 18.5515C185.554 18.8997 185.374 19.4461 185.374 20.1906ZM194.084 25.1801C193.304 25.1801 192.595 24.982 191.959 24.5857C191.335 24.1894 190.836 23.6551 190.464 22.9826C190.104 22.2981 189.924 21.5356 189.924 20.695C189.924 19.8424 190.104 19.0798 190.464 18.4074C190.836 17.7229 191.335 17.1825 191.959 16.7862C192.595 16.3779 193.304 16.1738 194.084 16.1738C194.745 16.1738 195.327 16.3179 195.832 16.6061C196.348 16.8823 196.756 17.2666 197.057 17.7589C197.357 18.2512 197.507 18.8096 197.507 19.4341V21.9198C197.507 22.5443 197.357 23.1027 197.057 23.595C196.768 24.0874 196.366 24.4776 195.85 24.7658C195.333 25.042 194.745 25.1801 194.084 25.1801ZM194.409 23.3068C194.901 23.3068 195.327 23.1987 195.688 22.9826C196.06 22.7544 196.348 22.4422 196.552 22.0459C196.756 21.6496 196.858 21.1933 196.858 20.677C196.858 20.1606 196.756 19.7043 196.552 19.308C196.348 18.9117 196.06 18.6055 195.688 18.3893C195.327 18.1612 194.901 18.0471 194.409 18.0471C193.928 18.0471 193.502 18.1612 193.13 18.3893C192.77 18.6055 192.481 18.9117 192.265 19.308C192.061 19.7043 191.959 20.1606 191.959 20.677C191.959 21.1933 192.061 21.6496 192.265 22.0459C192.481 22.4422 192.77 22.7544 193.13 22.9826C193.502 23.1987 193.928 23.3068 194.409 23.3068ZM198.714 25H196.732V22.6764L197.075 20.5689L196.732 18.4794V12.0309H198.714V25ZM204.93 25.1801C204.065 25.1801 203.284 24.988 202.588 24.6037C201.903 24.2074 201.357 23.6671 200.949 22.9826C200.552 22.2981 200.354 21.5296 200.354 20.677C200.354 19.8244 200.552 19.0618 200.949 18.3893C201.345 17.7049 201.879 17.1645 202.552 16.7682C203.236 16.3719 203.993 16.1738 204.821 16.1738C205.626 16.1738 206.335 16.3599 206.947 16.7322C207.571 17.1044 208.058 17.6148 208.406 18.2633C208.766 18.9117 208.946 19.6502 208.946 20.4788C208.946 20.6229 208.934 20.773 208.91 20.9291C208.898 21.0732 208.874 21.2353 208.838 21.4155H201.741V19.7943H207.812L207.073 20.4428C207.049 19.9144 206.947 19.4701 206.767 19.1099C206.587 18.7496 206.329 18.4734 205.992 18.2813C205.668 18.0891 205.266 17.9931 204.785 17.9931C204.281 17.9931 203.843 18.1011 203.47 18.3173C203.098 18.5334 202.81 18.8397 202.606 19.2359C202.402 19.6202 202.3 20.0825 202.3 20.6229C202.3 21.1633 202.408 21.6376 202.624 22.0459C202.84 22.4542 203.146 22.7724 203.543 23.0006C203.939 23.2167 204.395 23.3248 204.912 23.3248C205.356 23.3248 205.764 23.2468 206.136 23.0907C206.521 22.9345 206.845 22.7064 207.109 22.4062L208.37 23.6851C207.95 24.1774 207.439 24.5497 206.839 24.8019C206.238 25.054 205.602 25.1801 204.93 25.1801ZM210.535 25V16.3539H212.516V25H210.535ZM212.516 20.1906L211.832 19.8484C211.832 18.7556 212.072 17.873 212.552 17.2005C213.044 16.516 213.783 16.1738 214.768 16.1738C215.2 16.1738 215.59 16.2518 215.939 16.4079C216.287 16.5641 216.611 16.8162 216.911 17.1645L215.614 18.4974C215.458 18.3293 215.284 18.2092 215.092 18.1372C214.9 18.0651 214.678 18.0291 214.425 18.0291C213.873 18.0291 213.417 18.2032 213.056 18.5515C212.696 18.8997 212.516 19.4461 212.516 20.1906ZM222.063 25V12.3911H223.504L224.134 14.7688V25H222.063ZM230.799 25L223.252 15.1471L223.504 12.3911L231.051 22.2441L230.799 25ZM230.799 25L230.169 22.7844V12.3911H232.24V25H230.799ZM238.667 25.1801C237.826 25.1801 237.064 24.982 236.379 24.5857C235.695 24.1774 235.148 23.631 234.74 22.9466C234.344 22.2621 234.146 21.4995 234.146 20.6589C234.146 19.8183 234.344 19.0618 234.74 18.3893C235.148 17.7169 235.695 17.1825 236.379 16.7862C237.064 16.3779 237.826 16.1738 238.667 16.1738C239.519 16.1738 240.288 16.3719 240.972 16.7682C241.657 17.1645 242.197 17.7049 242.594 18.3893C243.002 19.0618 243.206 19.8183 243.206 20.6589C243.206 21.4995 243.002 22.2621 242.594 22.9466C242.197 23.631 241.657 24.1774 240.972 24.5857C240.288 24.982 239.519 25.1801 238.667 25.1801ZM238.667 23.2708C239.159 23.2708 239.592 23.1627 239.964 22.9466C240.348 22.7184 240.642 22.4062 240.846 22.0099C241.063 21.6136 241.171 21.1633 241.171 20.6589C241.171 20.1546 241.063 19.7103 240.846 19.326C240.63 18.9417 240.336 18.6415 239.964 18.4254C239.592 18.1972 239.159 18.0831 238.667 18.0831C238.187 18.0831 237.754 18.1972 237.37 18.4254C236.998 18.6415 236.703 18.9417 236.487 19.326C236.283 19.7103 236.181 20.1546 236.181 20.6589C236.181 21.1633 236.283 21.6136 236.487 22.0099C236.703 22.4062 236.998 22.7184 237.37 22.9466C237.754 23.1627 238.187 23.2708 238.667 23.2708ZM247.164 25L243.688 16.3539H245.741L248.083 22.6403L247.471 22.6584L249.758 16.3539H250.911L253.199 22.6584L252.586 22.6403L254.928 16.3539H256.981L253.505 25H252.352L250.011 19.0198H250.659L248.317 25H247.164Z" fill="#23344C"/>
<path d="M276.591 18.8983L271.525 23.9643C271.419 24.0699 271.276 24.1293 271.127 24.1293C270.977 24.1293 270.834 24.0699 270.728 23.9643C270.623 23.8587 270.563 23.7154 270.563 23.5661C270.563 23.4167 270.623 23.2734 270.728 23.1678L274.834 19.0629H263.809C263.66 19.0629 263.517 19.0036 263.411 18.898C263.305 18.7925 263.246 18.6493 263.246 18.5C263.246 18.3507 263.305 18.2075 263.411 18.102C263.517 17.9964 263.66 17.9371 263.809 17.9371H274.834L270.728 13.8322C270.623 13.7266 270.563 13.5833 270.563 13.4339C270.563 13.2846 270.623 13.1413 270.728 13.0357C270.834 12.9301 270.977 12.8707 271.127 12.8707C271.276 12.8707 271.419 12.9301 271.525 13.0357L276.591 18.1018C276.643 18.154 276.685 18.2161 276.713 18.2844C276.741 18.3528 276.756 18.426 276.756 18.5C276.756 18.574 276.741 18.6472 276.713 18.7156C276.685 18.7839 276.643 18.846 276.591 18.8983Z" fill="#23344C"/>
</g>
<defs>
<filter id="filter0_i_108_620" x="0" y="0" width="132" height="40" filterUnits="userSpaceOnUse" color-interpolation-filters="sRGB">
<feFlood flood-opacity="0" result="BackgroundImageFix"/>
<feBlend mode="normal" in="SourceGraphic" in2="BackgroundImageFix" result="shape"/>
<feColorMatrix in="SourceAlpha" type="matrix" values="0 0 0 0 0 0 0 0 0 0 0 0 0 0 0 0 0 0 127 0" result="hardAlpha"/>
<feOffset dx="5" dy="5"/>
<feGaussianBlur stdDeviation="1.5"/>
<feComposite in2="hardAlpha" operator="arithmetic" k2="-1" k3="1"/>
<feColorMatrix type="matrix" values="0 0 0 0 0 0 0 0 0 0 0 0 0 0 0 0 0 0 0.25 0"/>
<feBlend mode="normal" in2="shape" result="effect1_innerShadow_108_620"/>
</filter>
<filter id="filter1_i_108_620" x="159" y="0" width="132" height="40" filterUnits="userSpaceOnUse" color-interpolation-filters="sRGB">
<feFlood flood-opacity="0" result="BackgroundImageFix"/>
<feBlend mode="normal" in="SourceGraphic" in2="BackgroundImageFix" result="shape"/>
<feColorMatrix in="SourceAlpha" type="matrix" values="0 0 0 0 0 0 0 0 0 0 0 0 0 0 0 0 0 0 127 0" result="hardAlpha"/>
<feOffset dx="5" dy="5"/>
<feGaussianBlur stdDeviation="1.5"/>
<feComposite in2="hardAlpha" operator="arithmetic" k2="-1" k3="1"/>
<feColorMatrix type="matrix" values="0 0 0 0 0 0 0 0 0 0 0 0 0 0 0 0 0 0 0.25 0"/>
<feBlend mode="normal" in2="shape" result="effect1_innerShadow_108_620"/>
</filter>
<clipPath id="clip0_108_620">
<rect width="24" height="24" fill="white" transform="translate(91.001 6.5)"/>
</clipPath>
</defs>
</svg>
